<svg width="64" height="64" viewBox="0 0 64 64" fill="none" xmlns="http://www.w3.org/2000/svg">
<g clip-path="url(#clip0_3080_7236)">
<path d="M63.0394 39.741C58.7654 56.884 41.4024 67.317 24.2574 63.042C7.11937 58.768 -3.31363 41.404 0.962367 24.262C5.23437 7.11699 22.5974 -3.31701 39.7374 0.956985C56.8814 5.23099 67.3134 22.597 63.0394 39.741Z" fill="#A259FF"/>
<path d="M46.1093 27.441C46.7463 23.183 43.5043 20.894 39.0713 19.367L40.5093 13.599L36.9983 12.724L35.5983 18.34C34.6753 18.11 33.7273 17.893 32.7853 17.678L34.1953 12.025L30.6863 11.15L29.2473 16.916C28.4833 16.742 27.7333 16.57 27.0053 16.389L27.0093 16.371L22.1673 15.162L21.2333 18.912C21.2333 18.912 23.8383 19.509 23.7833 19.546C25.2053 19.901 25.4623 20.842 25.4193 21.588L23.7813 28.159C23.8793 28.184 24.0063 28.22 24.1463 28.276C24.0293 28.247 23.9043 28.215 23.7753 28.184L21.4793 37.389C21.3053 37.821 20.8643 38.469 19.8703 38.223C19.9053 38.274 17.3183 37.586 17.3183 37.586L15.5753 41.605L20.1443 42.744C20.9943 42.957 21.8273 43.18 22.6473 43.39L21.1943 49.224L24.7013 50.099L26.1403 44.327C27.0983 44.587 28.0283 44.827 28.9383 45.053L27.5043 50.798L31.0153 51.673L32.4683 45.85C38.4553 46.983 42.9573 46.526 44.8523 41.111C46.3793 36.751 44.7763 34.236 41.6263 32.596C43.9203 32.067 45.6483 30.558 46.1093 27.441ZM38.0873 38.69C37.0023 43.05 29.6613 40.693 27.2813 40.102L29.2093 32.373C31.5893 32.967 39.2213 34.143 38.0873 38.69ZM39.1733 27.378C38.1833 31.344 32.0733 29.329 30.0913 28.835L31.8393 21.825C33.8213 22.319 40.2043 23.241 39.1733 27.378Z" fill="white"/>
</g>
<defs>
<clipPath id="clip0_3080_7236">
<rect width="64" height="64" fill="white"/>
</clipPath>
</defs>
</svg>
