<svg width="126" height="28" viewBox="0 0 126 28" fill="none" xmlns="http://www.w3.org/2000/svg">
<path d="M12.3795 8.66835C13.4688 8.66835 14.4105 8.86203 15.2048 9.24937C15.999 9.63671 16.6571 10.1608 17.179 10.8215C17.7009 11.4823 18.0867 12.257 18.3363 13.1456C18.5859 14.0342 18.7108 14.9911 18.7108 16.0165C18.7108 17.5886 18.4157 19.081 17.8257 20.4937C17.2584 21.8835 16.4755 23.1025 15.4771 24.1506C14.4786 25.1759 13.2986 25.9962 11.937 26.6114C10.5755 27.2038 9.10047 27.5 7.51199 27.5C7.30776 27.5 6.94468 27.4886 6.42275 27.4658C5.92351 27.4658 5.34485 27.4203 4.68677 27.3291C4.02869 27.238 3.32522 27.1013 2.57637 26.919C1.85021 26.7367 1.15808 26.4861 0.5 26.1671L6.38871 1.32025L11.6647 0.5L9.55432 9.31772C10.0082 9.11266 10.462 8.95317 10.9159 8.83924C11.3697 8.72532 11.8576 8.66835 12.3795 8.66835ZM7.95449 23.2962C8.74873 23.2962 9.49759 23.1025 10.2011 22.7152C10.9045 22.3278 11.5059 21.8152 12.0051 21.1772C12.527 20.5165 12.9355 19.7759 13.2305 18.9557C13.5255 18.1354 13.673 17.281 13.673 16.3924C13.673 15.2987 13.4915 14.4443 13.1284 13.8291C12.7653 13.2139 12.0959 12.9063 11.1201 12.9063C10.8024 12.9063 10.3826 12.9633 9.86067 13.0772C9.36143 13.1911 8.90758 13.4304 8.49911 13.7949L6.25256 23.1595C6.38871 23.1823 6.50217 23.2051 6.59294 23.2278C6.70641 23.2506 6.81987 23.2734 6.93333 23.2962C7.04679 23.2962 7.18295 23.2962 7.3418 23.2962C7.50064 23.2962 7.70488 23.2962 7.95449 23.2962Z" fill="#3F3F3F"/>
<path d="M25.1167 27.0215H20.079L24.3338 9.0443H29.4056L25.1167 27.0215ZM27.5675 6.85696C26.864 6.85696 26.2286 6.6519 25.6613 6.24177C25.094 5.80886 24.8103 5.15949 24.8103 4.29367C24.8103 3.81519 24.9011 3.37088 25.0827 2.96076C25.2869 2.52785 25.5478 2.16329 25.8655 1.86709C26.1832 1.5481 26.5463 1.29747 26.9548 1.11519C27.3859 0.932911 27.8398 0.841772 28.3163 0.841772C29.0198 0.841772 29.6552 1.05823 30.2225 1.49114C30.7898 1.90127 31.0735 2.53924 31.0735 3.40506C31.0735 3.88354 30.9714 4.33924 30.7671 4.77215C30.5856 5.18228 30.336 5.54684 30.0183 5.86582C29.7006 6.16203 29.3262 6.40127 28.895 6.58354C28.4865 6.76582 28.044 6.85696 27.5675 6.85696Z" fill="#3F3F3F"/>
<path d="M34.5864 4.56709L39.8624 3.74683L38.5689 9.0443H44.2194L43.1982 13.2139H37.5818L36.0841 19.5025C35.9479 20.0266 35.8572 20.5165 35.8118 20.9722C35.7891 21.4278 35.8458 21.8266 35.982 22.1684C36.1408 22.4873 36.4018 22.738 36.7649 22.9203C37.1279 23.1025 37.6272 23.1937 38.2626 23.1937C38.8072 23.1937 39.3291 23.1481 39.8284 23.057C40.3503 22.943 40.8722 22.7949 41.3941 22.6127L41.7686 26.5089C41.0878 26.7595 40.3503 26.976 39.556 27.1582C38.7618 27.3405 37.8201 27.4316 36.7308 27.4316C35.165 27.4316 33.951 27.2038 33.0887 26.7481C32.2264 26.2696 31.6137 25.6316 31.2506 24.8342C30.8875 24.0139 30.7287 23.0797 30.774 22.0316C30.8194 20.9835 30.9783 19.8785 31.2506 18.7165L34.5864 4.56709Z" fill="#3F3F3F"/>
<path d="M57.9035 16.4949C57.4723 17.4291 56.9844 18.3861 56.4398 19.3658C55.9179 20.3228 55.3733 21.2684 54.806 22.2025C54.2613 23.1139 53.7281 23.9911 53.2061 24.8342C52.6842 25.6544 52.219 26.3835 51.8105 27.0215H47.862C47.6805 26.0646 47.4876 24.9253 47.2834 23.6038C47.1018 22.2823 46.9203 20.8468 46.7388 19.2975C46.5572 17.7253 46.387 16.0734 46.2282 14.3418C46.092 12.5873 45.9899 10.8215 45.9218 9.0443H50.8915C50.8915 9.86456 50.8915 10.7532 50.8915 11.7101C50.9142 12.6671 50.9369 13.6582 50.9596 14.6835C51.005 15.7089 51.0617 16.757 51.1298 17.8278C51.1978 18.8987 51.2886 19.9582 51.4021 21.0063C51.9694 20.0494 52.5254 19.0582 53.07 18.0329C53.6373 16.9848 54.1706 15.9481 54.6698 14.9228C55.1917 13.8747 55.6683 12.8494 56.0994 11.8468C56.5533 10.8443 56.9504 9.91013 57.2908 9.0443H61.5116C61.5116 10.6848 61.5343 12.519 61.5797 14.5468C61.6478 16.5747 61.7953 18.7278 62.0222 21.0063C62.6349 19.981 63.2022 18.9329 63.7241 17.862C64.246 16.7684 64.7226 15.6975 65.1537 14.6494C65.6076 13.6013 66.0047 12.5987 66.3451 11.6418C66.7082 10.6848 67.0259 9.81899 67.2982 9.0443H72.6763C72.2225 10.1835 71.6778 11.4709 71.0425 12.9063C70.4298 14.319 69.715 15.8114 68.898 17.3835C68.0811 18.9557 67.162 20.562 66.1409 22.2025C65.1197 23.843 63.9851 25.4494 62.737 27.0215H58.7885C58.5162 25.1532 58.312 23.3646 58.1758 21.6557C58.0396 19.9468 57.9489 18.2266 57.9035 16.4949Z" fill="#F7931A"/>
<path d="M80.1026 27.5C78.8999 27.5 77.8561 27.3177 76.9711 26.9532C76.0861 26.5886 75.3485 26.0759 74.7585 25.4152C74.1912 24.7544 73.7601 23.9797 73.4651 23.0911C73.1701 22.1797 73.0226 21.1772 73.0226 20.0835C73.0226 18.7165 73.2381 17.3494 73.6693 15.9823C74.1231 14.6152 74.7812 13.3848 75.6435 12.2911C76.5059 11.1975 77.5611 10.3089 78.8092 9.62532C80.0572 8.91899 81.4869 8.56582 83.098 8.56582C84.2781 8.56582 85.3106 8.7481 86.1956 9.11266C87.1033 9.47721 87.8408 9.98987 88.4081 10.6506C88.9981 11.3114 89.4406 12.0975 89.7356 13.0089C90.0306 13.8975 90.1781 14.8886 90.1781 15.9823C90.1781 17.3494 89.9625 18.7165 89.5314 20.0835C89.1002 21.4506 88.4648 22.681 87.6252 23.7747C86.7856 24.8684 85.7304 25.7684 84.4596 26.4747C83.2115 27.1582 81.7592 27.5 80.1026 27.5ZM82.6215 12.8722C81.8726 12.8722 81.2146 13.0886 80.6472 13.5215C80.0799 13.9544 79.6034 14.5013 79.2176 15.162C78.8318 15.8228 78.5368 16.5519 78.3326 17.3494C78.1511 18.1241 78.0603 18.8646 78.0603 19.5709C78.0603 20.7329 78.2418 21.6329 78.6049 22.2709C78.968 22.8861 79.6261 23.1937 80.5792 23.1937C81.328 23.1937 81.9861 22.9772 82.5534 22.5443C83.1207 22.1114 83.5973 21.5646 83.983 20.9038C84.3688 20.243 84.6525 19.5253 84.834 18.7506C85.0383 17.9532 85.1404 17.2013 85.1404 16.4949C85.1404 15.3329 84.9588 14.4443 84.5957 13.8291C84.2327 13.1911 83.5746 12.8722 82.6215 12.8722Z" fill="#F7931A"/>
<path d="M105.231 13.419C104.777 13.3051 104.323 13.2025 103.869 13.1114C103.438 12.9975 102.791 12.9405 101.929 12.9405C101.611 12.9405 101.26 12.9747 100.874 13.043C100.488 13.0886 100.17 13.1456 99.9206 13.2139L96.6189 27.0215H91.5471L95.6318 10.0013C96.6075 9.68228 97.6968 9.38608 98.8995 9.11266C100.125 8.81646 101.498 8.66835 103.018 8.66835C103.585 8.66835 104.21 8.72532 104.89 8.83924C105.594 8.93038 106.206 9.08987 106.728 9.31772L105.231 13.419Z" fill="#F7931A"/>
<path d="M113.655 9.0443L116.241 14.6494C117.013 13.6924 117.739 12.7582 118.42 11.8468C119.123 10.9354 119.793 10.0013 120.428 9.0443H125.5C124.547 10.4114 123.503 11.8354 122.368 13.3165C121.234 14.7747 119.918 16.3013 118.42 17.8962C119.328 19.6051 120.099 21.1886 120.735 22.6468C121.37 24.0823 121.937 25.5405 122.437 27.0215H117.433C117.024 25.9051 116.616 24.8797 116.207 23.9456C115.799 23.0114 115.402 22.1456 115.016 21.3481L110.08 27.0215H104.77L112.906 17.862L108.515 9.0443H113.655Z" fill="#F7931A"/>
</svg>
